<svg xmlns="http://www.w3.org/2000/svg" xmlns:xlink="http://www.w3.org/1999/xlink" width="113" height="113" viewBox="0 0 113 113">
  <defs>
    <clipPath id="clip-path">
      <rect id="Rectángulo_35835" data-name="Rectángulo 35835" width="113" height="113" transform="translate(0 -0.265)" fill="none"/>
    </clipPath>
  </defs>
  <g id="Grupo_176330" data-name="Grupo 176330" transform="translate(0 0.266)">
    <g id="Grupo_176329" data-name="Grupo 176329" clip-path="url(#clip-path)">
      <path id="Trazado_125736" data-name="Trazado 125736" d="M111.753,293H8.681a3.681,3.681,0,1,0,0,7.362H111.753a3.681,3.681,0,1,0,0-7.362" transform="translate(-3.85 -225.589)" fill="#afafaf"/>
      <path id="Trazado_125737" data-name="Trazado 125737" d="M21,325v32.21a4.6,4.6,0,0,0,4.6,4.6H119.47a4.6,4.6,0,0,0,4.6-4.6V325Z" transform="translate(-16.169 -250.227)" fill="#efefef"/>
      <path id="Trazado_125738" data-name="Trazado 125738" d="M445.15,354.232a1.151,1.151,0,0,1-1.15-1.15V341.15a1.15,1.15,0,1,1,2.3,0v11.931A1.151,1.151,0,0,1,445.15,354.232Z" transform="translate(-341.849 -261.776)" fill="#fff"/>
      <path id="Trazado_125739" data-name="Trazado 125739" d="M43.087,389.992v21.742H25.6a4.6,4.6,0,0,1-4.6-4.6V389.84a7.325,7.325,0,0,1,5.154,2.107,7.352,7.352,0,0,0,10.307,0,7.348,7.348,0,0,1,6.626-1.956" transform="translate(-16.169 -300.149)" fill="#7d5f54"/>
      <path id="Trazado_125740" data-name="Trazado 125740" d="M54.636,462.3H44.052a1.15,1.15,0,1,1,0-2.3H54.636a1.15,1.15,0,1,1,0,2.3m-15.185,0h-2.3a1.15,1.15,0,1,1,0-2.3h2.3a1.15,1.15,0,1,1,0,2.3" transform="translate(-27.717 -354.168)" fill="#c5e5fe"/>
      <path id="Trazado_125741" data-name="Trazado 125741" d="M395.087,389.84v17.292a4.6,4.6,0,0,1-4.6,4.6H373V389.992a7.33,7.33,0,0,1,6.626,1.956,7.356,7.356,0,0,0,10.307,0A7.325,7.325,0,0,1,395.087,389.84Z" transform="translate(-287.184 -300.149)" fill="#7d5f54"/>
      <path id="Trazado_125742" data-name="Trazado 125742" d="M369.15,409.838a1.15,1.15,0,1,1,0-2.3h16.335V393.01a1.15,1.15,0,1,1,2.3,0v15.677a1.148,1.148,0,0,1-1.15,1.15Z" transform="translate(-283.334 -301.705)" fill="#c5e5fe"/>
      <path id="Trazado_125743" data-name="Trazado 125743" d="M117,325v36.811h58.9V325Z" transform="translate(-90.082 -250.227)" fill="#e6c1b3"/>
      <path id="Trazado_125744" data-name="Trazado 125744" d="M346.49,340.224a1.15,1.15,0,0,1-1.15-1.15V328.49a1.15,1.15,0,1,1,2.3,0v10.583a1.15,1.15,0,0,1-1.15,1.15" transform="translate(-265.888 -252.029)" fill="#7d5f54"/>
      <path id="Trazado_125745" data-name="Trazado 125745" d="M175.9,389.988V411.73H117V389.988a7.242,7.242,0,0,1,3.681,1.956,7.356,7.356,0,0,0,10.307,0,7.356,7.356,0,0,1,10.307,0,7.356,7.356,0,0,0,10.307,0,7.352,7.352,0,0,1,10.307,0,7.356,7.356,0,0,0,10.307,0A7.293,7.293,0,0,1,175.9,389.988Z" transform="translate(-90.082 -300.146)" fill="#7d5f54"/>
      <path id="Trazado_125746" data-name="Trazado 125746" d="M172.048,462.3h-58.9a1.15,1.15,0,1,1,0-2.3h58.9a1.15,1.15,0,1,1,0,2.3" transform="translate(-86.232 -354.168)" fill="#c5e5fe"/>
      <path id="Trazado_125747" data-name="Trazado 125747" d="M158.091,149a11.965,11.965,0,0,1-23.283,0H117v33.13h58.9V149Z" transform="translate(-90.082 -114.72)" fill="#b9988c"/>
      <path id="Trazado_125748" data-name="Trazado 125748" d="M346.49,197.909a1.15,1.15,0,0,1-1.15-1.15V176.513a1.15,1.15,0,1,1,2.3,0v20.246a1.15,1.15,0,0,1-1.15,1.15m0-24.848a1.15,1.15,0,0,1-1.15-1.15V169.15a1.15,1.15,0,1,1,2.3,0v2.761a1.15,1.15,0,0,1-1.15,1.15" transform="translate(-265.888 -129.348)" fill="#7d5f54"/>
      <path id="Trazado_125749" data-name="Trazado 125749" d="M123.082,117a12.01,12.01,0,0,0-.594,7.362H104.681a3.681,3.681,0,0,1,0-7.362Z" transform="translate(-77.763 -90.082)" fill="#afafaf"/>
      <path id="Trazado_125750" data-name="Trazado 125750" d="M315.1,120.681a3.68,3.68,0,0,1-3.681,3.681H293.614A12.009,12.009,0,0,0,293.02,117h18.4A3.68,3.68,0,0,1,315.1,120.681Z" transform="translate(-225.605 -90.082)" fill="#afafaf"/>
      <path id="Trazado_125751" data-name="Trazado 125751" d="M217.683,149a11.965,11.965,0,0,1-23.283,0Z" transform="translate(-149.674 -114.72)" fill="#7d5f54"/>
      <path id="Trazado_125752" data-name="Trazado 125752" d="M216.6,124.362H193.32a12.009,12.009,0,0,1,.594-7.362h22.1a12.01,12.01,0,0,1,.594,7.362" transform="translate(-148.595 -90.082)" fill="#878787"/>
      <path id="Trazado_125753" data-name="Trazado 125753" d="M219.076,92.362h-22.1a11.971,11.971,0,0,1,22.1,0" transform="translate(-151.661 -65.444)" fill="#fcc02d"/>
      <path id="Trazado_125754" data-name="Trazado 125754" d="M174.2,198.227a4.6,4.6,0,1,1-9.2,0c0-1.868,2.487-6.461,3.8-8.762a.918.918,0,0,1,1.594,0C171.716,191.766,174.2,196.358,174.2,198.227Z" transform="translate(-127.038 -145.518)" fill="#efefef"/>
      <path id="Trazado_125755" data-name="Trazado 125755" d="M294.2,198.227a4.6,4.6,0,0,1-9.2,0c0-1.868,2.487-6.461,3.8-8.762a.918.918,0,0,1,1.594,0c1.317,2.3,3.8,6.894,3.8,8.762" transform="translate(-219.43 -145.518)" fill="#efefef"/>
      <path id="Trazado_125756" data-name="Trazado 125756" d="M234.2,222.177a4.6,4.6,0,0,1-9.2,0c0-1.868,2.487-6.461,3.8-8.762a.918.918,0,0,1,1.594,0c1.317,2.3,3.8,6.894,3.8,8.762" transform="translate(-173.234 -163.957)" fill="#efefef"/>
      <path id="Trazado_125757" data-name="Trazado 125757" d="M369.15,214.58a1.15,1.15,0,1,1-1.15,1.15,1.15,1.15,0,0,1,1.15-1.15" transform="translate(-283.334 -165.212)"/>
      <path id="Trazado_125758" data-name="Trazado 125758" d="M163.957,185.053c-1.193,2.082-3.9,6.947-3.957,9.332a5.752,5.752,0,0,0,11.5,0c-.057-2.391-2.765-7.257-3.957-9.332a2.066,2.066,0,0,0-3.589,0m1.795,12.783a3.464,3.464,0,0,1-3.451-3.451c-.092-1.445,2.726-6.559,3.451-7.836.709,1.253,3.543,6.383,3.451,7.836a3.464,3.464,0,0,1-3.451,3.451" transform="translate(-123.189 -141.676)"/>
      <path id="Trazado_125759" data-name="Trazado 125759" d="M283.957,185.045c-1.2,2.094-3.9,6.95-3.957,9.332a5.752,5.752,0,1,0,11.5,0c-.057-2.4-2.76-7.242-3.957-9.332A2.064,2.064,0,0,0,283.957,185.045Zm5.246,9.332a3.451,3.451,0,0,1-6.9,0c-.092-1.445,2.726-6.559,3.451-7.836.709,1.253,3.543,6.383,3.451,7.836" transform="translate(-215.58 -141.667)"/>
      <path id="Trazado_125760" data-name="Trazado 125760" d="M223.957,209c-1.187,2.072-3.9,6.944-3.957,9.331a5.752,5.752,0,0,0,11.5,0c-.057-2.38-2.768-7.261-3.957-9.331A2.068,2.068,0,0,0,223.957,209Zm5.246,9.331a3.451,3.451,0,1,1-6.9,0c-.092-1.45,2.734-6.568,3.451-7.836.71,1.255,3.543,6.386,3.451,7.836" transform="translate(-169.385 -160.114)"/>
      <path id="Trazado_125761" data-name="Trazado 125761" d="M69.15,288A1.15,1.15,0,1,1,68,289.15,1.15,1.15,0,0,1,69.15,288" transform="translate(-52.355 -221.74)"/>
      <path id="Trazado_125762" data-name="Trazado 125762" d="M107.9,127.855H86.967v-11.14a1.15,1.15,0,0,0-2.3,0v11.14h-56.6v-4.45H34.28a1.15,1.15,0,1,0,0-2.3H28.069v-8.126H34.28a1.15,1.15,0,1,0,0-2.3H28.069v-8.131H34.28a1.15,1.15,0,1,0,0-2.3H28.069V97.025H43.847c3.877,12.406,21.273,12.068,25.041,0H84.666v10.487a1.15,1.15,0,0,0,2.3,0V96.881a4.829,4.829,0,0,0-1.15-9.519H68.152a13.113,13.113,0,0,0-23.569,0H26.918a4.829,4.829,0,0,0-1.15,9.519v30.973H21.4a1.15,1.15,0,1,0,0,2.3H107.9a2.531,2.531,0,0,1,0,5.062H4.831a2.531,2.531,0,0,1,0-5.062h7.362a1.15,1.15,0,0,0,.009-2.3H4.831a4.829,4.829,0,0,0-1.15,9.519v31.2a5.76,5.76,0,0,0,5.752,5.752h83.2a1.15,1.15,0,1,0,0-2.3H86.967V152.453a6.138,6.138,0,0,1,4.67,1.759,8.5,8.5,0,0,0,11.918,0,6.146,6.146,0,0,1,3.2-1.668v16.034a3.464,3.464,0,0,1-3.451,3.451h-1.417a1.15,1.15,0,1,0,0,2.3H103.3a5.76,5.76,0,0,0,5.752-5.752v-31.2a4.829,4.829,0,0,0-1.15-9.519ZM85.816,89.663a2.531,2.531,0,0,1,0,5.062H69.385a13.258,13.258,0,0,0-.364-5.062ZM46.291,97.025H66.442a10.813,10.813,0,0,1-20.151,0M56.363,82.3h.009a10.762,10.762,0,0,1,9.157,5.062H47.206A10.763,10.763,0,0,1,56.363,82.3ZM46.12,89.663H66.614a10.8,10.8,0,0,1,.443,5.062H45.677a10.81,10.81,0,0,1,.443-5.062M24.387,92.194a2.541,2.541,0,0,1,2.531-2.531h16.8a13.261,13.261,0,0,0-.364,5.062H26.918a2.541,2.541,0,0,1-2.531-2.531m1.38,79.834H9.433a3.464,3.464,0,0,1-3.451-3.451V152.543a6.148,6.148,0,0,1,3.2,1.668,8.5,8.5,0,0,0,11.918,0,6.121,6.121,0,0,1,4.67-1.755Zm0-21.873a8.368,8.368,0,0,0-6.281,2.418,6.208,6.208,0,0,1-8.7,0,8.408,8.408,0,0,0-4.808-2.353v-12.7H25.768Zm58.9,21.873h-56.6v-6.9H34.28a1.15,1.15,0,1,0,0-2.3H28.069v-9.807a6.2,6.2,0,0,1,1.726,1.194,8.5,8.5,0,0,0,11.918,0,6.207,6.207,0,0,1,8.7,0,8.5,8.5,0,0,0,11.918,0,6.207,6.207,0,0,1,8.7,0,8.5,8.5,0,0,0,11.918,0,6.141,6.141,0,0,1,1.726-1.191Zm0-21.474a8.38,8.38,0,0,0-3.336,2.02,6.214,6.214,0,0,1-8.7,0,8.5,8.5,0,0,0-11.918,0,6.214,6.214,0,0,1-8.7,0,8.5,8.5,0,0,0-11.922,0,6.208,6.208,0,0,1-8.692,0,8.407,8.407,0,0,0-3.336-2.02v-6.285H34.28a1.15,1.15,0,1,0,0-2.3H28.069v-4.45h56.6Zm22.087-.334a8.409,8.409,0,0,0-4.808,2.353,6.214,6.214,0,0,1-8.7,0,8.353,8.353,0,0,0-6.281-2.422V137.518h19.786Z" transform="translate(0 -61.594)"/>
      <path id="Trazado_125763" data-name="Trazado 125763" d="M418.87,480a1.15,1.15,0,1,0,0,2.3h.009a1.15,1.15,0,0,0-.009-2.3" transform="translate(-321.615 -369.566)"/>
      <path id="Trazado_125764" data-name="Trazado 125764" d="M217.15,17.025a1.151,1.151,0,0,0,1.15-1.15V1.15a1.15,1.15,0,1,0-2.3,0V15.875a1.151,1.151,0,0,0,1.15,1.15" transform="translate(-166.305)"/>
      <path id="Trazado_125765" data-name="Trazado 125765" d="M241.15,15.185a1.151,1.151,0,0,0,1.15-1.15V1.15a1.15,1.15,0,1,0-2.3,0V14.034a1.151,1.151,0,0,0,1.15,1.15" transform="translate(-184.783)"/>
      <path id="Trazado_125766" data-name="Trazado 125766" d="M265.15,17.025a1.151,1.151,0,0,0,1.15-1.15V1.15a1.15,1.15,0,1,0-2.3,0V15.875a1.151,1.151,0,0,0,1.15,1.15" transform="translate(-203.261)"/>
    </g>
  </g>
</svg>
