<svg xmlns="http://www.w3.org/2000/svg" xmlns:xlink="http://www.w3.org/1999/xlink" width="51" height="51" viewBox="0 0 51 51">
  <defs>
    <clipPath id="clip-path">
      <path id="path2859" d="M0-682.665H21v21H0Z" transform="translate(0 682.665)"/>
    </clipPath>
  </defs>
  <g id="Grupo_176638" data-name="Grupo 176638" transform="translate(-339 -3558)">
    <circle id="Elipse_4040" data-name="Elipse 4040" cx="25.5" cy="25.5" r="25.5" transform="translate(339 3558)" fill="#fee9b5"/>
    <g id="limpieza" transform="translate(341.067 3562.186)">
      <path id="Trazado_133293" data-name="Trazado 133293" d="M37.261,13.651h-6.51L37.33,7.073a1.811,1.811,0,0,0-2.558-2.564l-9.142,9.142H16.095a.6.6,0,0,0,0,1.21h1.281l.76,6.054c-3.375-.235-6.529,4.976-13.693,6.94a.605.605,0,0,0-.4.8,13.688,13.688,0,0,0,6.694,7.371.607.607,0,0,0,.743-.157l1.909-2.345a8.293,8.293,0,0,0-.05,3.208.6.6,0,0,0,.429.468,16.024,16.024,0,0,0,3.987.64.6.6,0,0,0,.572-.8c-1.107-3.241-.249-6.053.774-8.426l.127,1.021s0,.01,0,.015l.5,4.032a.605.605,0,0,0,.6.53h12.7a.6.6,0,0,0,.6-.53L35.981,14.86h1.28a.6.6,0,0,0,0-1.209ZM35.63,5.362a.6.6,0,0,1,.847.853L20.51,22.181a3.145,3.145,0,0,0-.913-.787L35.63,5.362Zm-11.21,9.5-5.177,5.177-.648-5.177Zm-5.158,7.767c.812.627.46,1.684-.391,3.555a4.371,4.371,0,0,1-3.187-3.211c1.5-.93,2.507-1.169,3.578-.345ZM16.925,36.58a16.489,16.489,0,0,1-2.461-.441,9.246,9.246,0,0,1,1.52-5.807s0,0,0,0h0a.606.606,0,1,0-1.014-.665l-4.12,5.058A13.272,13.272,0,0,1,9.47,33.83l3.423-3.423a.6.6,0,0,0-.855-.855l-3.52,3.52a12.091,12.091,0,0,1-1.3-1.373,73.561,73.561,0,0,0,7.452-5.488.6.6,0,0,0-.773-.93,72.3,72.3,0,0,1-7.4,5.442,12.825,12.825,0,0,1-1.066-1.895c3.993-1.236,6.508-3.264,9.214-5.161a5.593,5.593,0,0,0,3.725,3.625C17.248,29.733,15.988,32.893,16.925,36.58ZM32.494,33H20.861l-.436-3.49s0-.01,0-.015l-.373-2.993a7.551,7.551,0,0,0,.882-3.041l8.606-8.605h5.22Z" transform="translate(0 0)" fill="#7d5f54"/>
      <path id="Trazado_133294" data-name="Trazado 133294" d="M42.721,27.367l-2.267,5.667H33.607a.6.6,0,0,0,0,1.21h7.257a.606.606,0,0,0,.562-.38l2.419-6.047A.605.605,0,0,0,42.721,27.367Z" transform="translate(-11.465 -9.101)" fill="#7d5f54"/>
      <path id="Trazado_133295" data-name="Trazado 133295" d="M37.023,44.2h-.3a.3.3,0,0,1-.3-.3v-.3a.6.6,0,0,0-1.21,0v.3a.3.3,0,0,1-.3.3H34.6a.6.6,0,0,0,0,1.21h.3a.3.3,0,0,1,.3.3v.3a.6.6,0,0,0,1.21,0v-.3a.3.3,0,0,1,.3-.3h.3A.6.6,0,0,0,37.023,44.2Z" transform="translate(-11.857 -15.428)" fill="#7d5f54"/>
      <path id="Trazado_133296" data-name="Trazado 133296" d="M11.606,29.408h.3a.3.3,0,0,1,.3.3v.3a.6.6,0,0,0,1.21,0v-.3a.3.3,0,0,1,.3-.3h.3a.6.6,0,0,0,0-1.21h-.3a.3.3,0,0,1-.3-.3v-.3a.6.6,0,0,0-1.21,0v.3a.3.3,0,0,1-.3.3H11.6A.6.6,0,0,0,11.606,29.408Z" transform="translate(-2.77 -9.104)" fill="#7d5f54"/>
    </g>
    <g id="g2853" transform="translate(361 4245.665)">
      <g id="g2855" transform="translate(0 -682.665)">
        <g id="g2857" clip-path="url(#clip-path)">
          <g id="g2863" transform="translate(0.304 0.304)">
            <path id="path2865" d="M-321.256-561.23a7.581,7.581,0,0,1-3.51-.856c-.173-.09-.343-.187-.508-.289a.137.137,0,0,1-.026-.213l10.3-10.3a.137.137,0,0,1,.213.026c.1.165.2.335.289.508a7.583,7.583,0,0,1,.856,3.51,7.616,7.616,0,0,1-7.616,7.616m-6.471-3.6q-.154-.248-.289-.508a7.562,7.562,0,0,1-.853-3.271,7.639,7.639,0,0,1,7.684-7.854,7.582,7.582,0,0,1,3.44.855q.26.135.507.29a.137.137,0,0,1,.025.213l-10.3,10.3a.137.137,0,0,1-.213-.025m6.471-14.214a10.2,10.2,0,0,0-10.2,10.2,10.2,10.2,0,0,0,10.2,10.2,10.2,10.2,0,0,0,10.2-10.2,10.2,10.2,0,0,0-10.2-10.2" transform="translate(331.453 579.042)" fill="#e94444"/>
          </g>
          <g id="g2867" transform="translate(3.969 2.136)">
            <path id="path2869" d="M-389.529,0a10.173,10.173,0,0,1,3.665,7.83,10.2,10.2,0,0,1-10.2,10.2,10.149,10.149,0,0,1-5.832-1.832,10.152,10.152,0,0,0,6.531,2.366,10.2,10.2,0,0,0,10.2-10.2A10.183,10.183,0,0,0-389.529,0" transform="translate(401.892)" fill="#d83131"/>
          </g>
          <g id="g2871" transform="translate(0.304 0.304)">
            <path id="path2873" d="M-417.089-627.969a10.19,10.19,0,0,1-3.042.461,10.2,10.2,0,0,1-10.2-10.2,10.2,10.2,0,0,1,10.2-10.2,10.2,10.2,0,0,1,10.2,10.2,10.2,10.2,0,0,1-5.816,9.21" transform="translate(430.327 647.9)" fill="none" stroke="#000" stroke-linecap="round" stroke-linejoin="round" stroke-miterlimit="10" stroke-width="0.8"/>
          </g>
          <g id="g2875" transform="translate(2.884 2.884)">
            <path id="path2877" d="M-367.369-42.788l-10.3,10.3a.137.137,0,0,1-.213-.025q-.154-.247-.289-.507a7.563,7.563,0,0,1-.853-3.271,7.639,7.639,0,0,1,7.684-7.855,7.587,7.587,0,0,1,3.44.855q.259.135.507.289A.137.137,0,0,1-367.369-42.788Z" transform="translate(379.028 44.146)" fill="none" stroke="#000" stroke-linecap="round" stroke-linejoin="round" stroke-miterlimit="10" stroke-width="0.8"/>
          </g>
          <g id="g2879" transform="translate(6.417 6.417)">
            <path id="path2881" d="M-211.273-115.819l3.636-3.636a.137.137,0,0,1,.213.025q.154.248.289.508a7.584,7.584,0,0,1,.856,3.51,7.616,7.616,0,0,1-7.616,7.616,7.58,7.58,0,0,1-3.51-.856q-.26-.135-.508-.289a.137.137,0,0,1-.025-.213l5.642-5.642" transform="translate(217.979 119.494)" fill="none" stroke="#000" stroke-linecap="round" stroke-linejoin="round" stroke-miterlimit="10" stroke-width="0.8"/>
          </g>
        </g>
      </g>
    </g>
  </g>
</svg>
