<svg xmlns="http://www.w3.org/2000/svg" xmlns:xlink="http://www.w3.org/1999/xlink" width="85" height="91" viewBox="0 0 85 91">
  <defs>
    <clipPath id="clip-path">
      <rect id="Rect치ngulo_35942" data-name="Rect치ngulo 35942" width="85" height="91" transform="translate(180 1771)" fill="#fff" stroke="#707070" stroke-width="1"/>
    </clipPath>
  </defs>
  <g id="Grupo_176667" data-name="Grupo 176667" transform="translate(-308 -2388.193)">
    <g id="Enmascarar_grupo_300" data-name="Enmascarar grupo 300" transform="translate(128 617.193)" clip-path="url(#clip-path)">
      <rect id="Rect치ngulo_35934" data-name="Rect치ngulo 35934" width="85" height="91" rx="22" transform="translate(180 1771)" fill="#fcc02d"/>
    </g>
    <g id="agua-limpia" transform="translate(318.155 2403.1)">
      <g id="Grupo_176634" data-name="Grupo 176634" transform="translate(2.6 0.9)">
        <path id="Trazado_133274" data-name="Trazado 133274" d="M66.01,17.4S59.2,25.568,55.8,31.49c4.833,4.56,8.644,14.907,8.372,15.928l.2.545a13.218,13.218,0,0,0,1.634.136A11.416,11.416,0,0,0,77.445,36.663c0-6.4-11.435-19.263-11.435-19.263Z" transform="translate(-19.588 -6.169)" fill="#9bbfda"/>
        <path id="Trazado_133275" data-name="Trazado 133275" d="M55.8,36.212c4.833,4.56,8.644,14.907,8.372,15.928l.2.545a13.218,13.218,0,0,0,1.634.136,15.486,15.486,0,0,0,1.77-.136,12.654,12.654,0,0,0,.34-2.859c0-4.9-6.807-13.613-9.938-17.425-.817,1.293-1.7,2.655-2.382,3.812Z" transform="translate(-19.588 -10.959)" fill="#86a1ba"/>
        <path id="Trazado_133276" data-name="Trazado 133276" d="M21.581,17.158a8.4,8.4,0,0,1-8.44,8.44,8.483,8.483,0,0,1-8.44-8.44C4.7,12.461,13.14,3,13.14,3S21.581,12.461,21.581,17.158Z" transform="translate(-3.271 -1.571)" fill="#9bbfda"/>
        <path id="Trazado_133277" data-name="Trazado 133277" d="M19.09,14.4a7.364,7.364,0,0,1,.613,2.723,8.4,8.4,0,0,1-8.44,8.44A8.144,8.144,0,0,1,5,22.7a8.387,8.387,0,0,0,8.168,6.466,8.483,8.483,0,0,0,8.44-8.44C21.676,19.029,20.519,16.714,19.09,14.4Z" transform="translate(-3.366 -5.211)" fill="#86a1ba"/>
        <path id="Trazado_133278" data-name="Trazado 133278" d="M57.854,55.863a1.188,1.188,0,0,1-.817-.272A13.086,13.086,0,0,1,51.8,46.266a1.4,1.4,0,0,1,1.021-1.5,1.346,1.346,0,0,1,1.634.681l4.7,8.3a1.446,1.446,0,0,1-.272,1.77A2.025,2.025,0,0,1,57.854,55.863Z" transform="translate(-18.308 -14.887)" fill="#86a1ba"/>
        <g id="Grupo_176629" data-name="Grupo 176629">
          <path id="Trazado_133279" data-name="Trazado 133279" d="M12.47,26.357a9.877,9.877,0,0,1-9.87-9.87c0-5.105,7.9-14.09,8.849-15.111a1.483,1.483,0,0,1,2.178,0c.885,1.021,8.849,10.074,8.849,15.111a10.084,10.084,0,0,1-10.006,9.87Zm0-21.917C9.407,8.115,5.391,13.765,5.391,16.487a7.045,7.045,0,0,0,14.09,0c0-2.723-3.948-8.372-7.011-12.048Z" transform="translate(-2.6 -0.9)" fill="#444c57"/>
          <path id="Trazado_133280" data-name="Trazado 133280" d="M15.264,29.68a5.434,5.434,0,0,1-3.063-.953,1.425,1.425,0,0,1,1.566-2.382,2.662,2.662,0,0,0,3.063-.068,1.416,1.416,0,1,1,1.634,2.314A5.059,5.059,0,0,1,15.264,29.68Z" transform="translate(-5.462 -8.919)" fill="#fff"/>
        </g>
        <g id="Grupo_176632" data-name="Grupo 176632" transform="translate(33.143 9.665)">
          <g id="Grupo_176631" data-name="Grupo 176631">
            <path id="Trazado_133281" data-name="Trazado 133281" d="M67.869,53.561A8.792,8.792,0,0,1,62.9,51.995a1.425,1.425,0,0,1,1.566-2.382,5.8,5.8,0,0,0,3.4,1.089,6.778,6.778,0,0,0,3.948-1.225,1.416,1.416,0,0,1,1.634,2.314A9.863,9.863,0,0,1,67.869,53.561Z" transform="translate(-54.796 -25.993)" fill="#fff"/>
            <g id="Grupo_176630" data-name="Grupo 176630">
              <path id="Trazado_133282" data-name="Trazado 133282" d="M65.141,48.793a1.429,1.429,0,1,1,0-2.859A10.2,10.2,0,0,0,75.487,35.86c0-4.288-6.671-12.933-10.278-17.153-2.042,2.382-6.6,7.964-8.985,12.66a1.431,1.431,0,1,1-2.587-1.225c3.2-6.534,10.142-14.226,10.482-14.566a1.586,1.586,0,0,1,1.021-.476,1.354,1.354,0,0,1,1.089.476c1.225,1.361,12.116,13.545,12.116,20.216A13.131,13.131,0,0,1,65.141,48.793Z" transform="translate(-51.999 -15.1)" fill="#444c57"/>
              <path id="Trazado_133283" data-name="Trazado 133283" d="M57.356,55.961a1.188,1.188,0,0,1-.817-.272A13.086,13.086,0,0,1,51.3,46.363a1.436,1.436,0,1,1,2.859-.272,9.755,9.755,0,0,0,4.084,7.215,1.412,1.412,0,0,1,.272,1.974,1.263,1.263,0,0,1-1.157.681Z" transform="translate(-51.292 -24.582)" fill="#444c57"/>
            </g>
          </g>
        </g>
        <path id="Trazado_133284" data-name="Trazado 133284" d="M28.362,51.342c0-6.194,8.032-16.949,12.592-22.6C39.117,26.5,37.823,25,37.823,25S22.1,42.7,22.1,51.342A15.611,15.611,0,0,0,40.954,66.725,15.639,15.639,0,0,1,28.362,51.342Z" transform="translate(-8.827 -8.596)" fill="#474c54" opacity="0.1"/>
        <g id="Grupo_176633" data-name="Grupo 176633" transform="translate(11.844 15.043)">
          <path id="Trazado_133285" data-name="Trazado 133285" d="M37.085,67.924A17.154,17.154,0,0,1,20,50.771c0-9.121,15.451-26.546,16.064-27.295a1.483,1.483,0,0,1,2.178,0c.681.749,16.064,18.174,16.064,27.295A17.27,17.27,0,0,1,37.085,67.924Zm0-41.317c-4.833,5.65-14.294,17.97-14.294,24.164a14.294,14.294,0,1,0,28.588,0c0-6.194-9.461-18.582-14.294-24.164Z" transform="translate(-20 -23)" fill="#444c57"/>
          <path id="Trazado_133286" data-name="Trazado 133286" d="M41.443,74.4a12.616,12.616,0,0,1-6.943-2.11A1.425,1.425,0,0,1,36.066,69.9a9.767,9.767,0,0,0,10.891-.136,1.367,1.367,0,0,1,1.974.34,1.425,1.425,0,0,1-.34,1.974A11.8,11.8,0,0,1,41.443,74.4Z" transform="translate(-24.427 -37.844)" fill="#444c57"/>
        </g>
      </g>
    </g>
  </g>
</svg>
