<svg xmlns="http://www.w3.org/2000/svg" width="128" height="128" viewBox="0 0 128 128">
  <g id="Grupo_176314" data-name="Grupo 176314" transform="translate(-1087 -1140)">
    <circle id="Elipse_4008" data-name="Elipse 4008" cx="64" cy="64" r="64" transform="translate(1087 1140)" fill="#7d5f54"/>
    <g id="piscina" transform="translate(1106 1154)">
      <g id="Grupo_176310" data-name="Grupo 176310" transform="translate(9.202 21.342)">
        <path id="Trazado_125701" data-name="Trazado 125701" d="M88.15,208v26.455c0,9.3-16.151,16.835-36.075,16.835S16,243.753,16,234.455V208c0,9.3,16.151,16.835,36.075,16.835S88.15,217.3,88.15,208Z" transform="translate(-16 -191.279)" fill="#1a6fb0"/>
        <ellipse id="Elipse_4009" data-name="Elipse 4009" cx="35.5" cy="16.5" rx="35.5" ry="16.5" transform="translate(0.575 0.436)" fill="#ff9811"/>
        <ellipse id="Elipse_4010" data-name="Elipse 4010" cx="30.5" cy="12.5" rx="30.5" ry="12.5" transform="translate(5.575 4.436)" fill="#5aaae7"/>
        <path id="Trazado_125702" data-name="Trazado 125702" d="M88,204c2.285,0,2.285,1.2,4.569,1.2s2.285-1.2,4.569-1.2,2.285,1.2,4.569,1.2,2.285-1.2,4.569-1.2,2.285,1.2,4.569,1.2" transform="translate(-77.178 -187.881)" fill="#e0e0e2"/>
        <path id="Trazado_125703" data-name="Trazado 125703" d="M152,172c2.285,0,2.285,1.2,4.569,1.2s2.285-1.2,4.569-1.2,2.285,1.2,4.569,1.2,2.285-1.2,4.569-1.2,2.285,1.2,4.569,1.2" transform="translate(-131.558 -160.69)" fill="#e0e0e2"/>
        <path id="Trazado_125704" data-name="Trazado 125704" d="M272,236c2.285,0,2.285,1.2,4.569,1.2s2.285-1.2,4.569-1.2,2.285,1.2,4.569,1.2,2.285-1.2,4.569-1.2,2.285,1.2,4.57,1.2" transform="translate(-233.52 -215.071)" fill="#e0e0e2"/>
      </g>
      <g id="Grupo_176311" data-name="Grupo 176311" transform="translate(8 8)">
        <path id="Trazado_125705" data-name="Trazado 125705" d="M71.295,25.068c-6.97-3.251-16.21-5.043-26.017-5.043a77.1,77.1,0,0,0-9.62.594V9.2a1.2,1.2,0,1,0-2.4,0V12.81h-9.62V9.2a1.2,1.2,0,1,0-2.4,0V24.214q-1.01.408-1.968.854C12,28.457,8,33.072,8,38.062V64.517c0,4.99,4,9.6,11.26,12.994,6.97,3.251,16.21,5.043,26.017,5.043s19.048-1.792,26.017-5.043c7.262-3.39,11.26-8,11.26-12.994V38.062C82.555,33.072,78.556,28.457,71.295,25.068ZM23.632,15.215h9.62v2.4h-9.62Zm0,4.81h9.62v.939a58.938,58.938,0,0,0-9.62,2.355ZM80.15,64.517c0,4-3.505,7.843-9.872,10.815-6.657,3.107-15.536,4.817-25,4.817s-18.343-1.711-25-4.817C13.91,72.361,10.4,68.52,10.4,64.517V44.545a23.829,23.829,0,0,0,8.855,6.512c6.97,3.251,16.21,5.043,26.017,5.043s19.048-1.792,26.017-5.043a23.829,23.829,0,0,0,8.855-6.512Zm-9.872-15.64c-6.657,3.107-15.536,4.817-25,4.817s-18.343-1.711-25-4.817C13.91,45.906,10.4,42.065,10.4,38.062s3.505-7.843,9.872-10.815c6.657-3.107,15.536-4.817,25-4.817s18.343,1.711,25,4.817c6.367,2.972,9.872,6.812,9.872,10.815S76.644,45.906,70.277,48.877Z" transform="translate(-8 -8)"/>
        <path id="Trazado_125706" data-name="Trazado 125706" d="M100.968,123.607C95.151,121.281,87.445,120,79.265,120s-15.886,1.281-21.7,3.607C51.4,126.074,48,129.491,48,133.227s3.4,7.153,9.561,9.62c5.817,2.327,13.524,3.607,21.7,3.607s15.886-1.281,21.7-3.607c6.166-2.467,9.561-5.883,9.561-9.62S107.134,126.074,100.968,123.607Zm4.346,14.132a1.2,1.2,0,0,0-.8-.3,3.1,3.1,0,0,1-1.726-.463,5.841,5.841,0,0,0-5.689,0,3.444,3.444,0,0,1-3.45,0,5.841,5.841,0,0,0-5.689,0,3.444,3.444,0,0,1-3.45,0,5.423,5.423,0,0,0-2.844-.74,1.2,1.2,0,1,0,0,2.4,3.1,3.1,0,0,1,1.724.463,5.841,5.841,0,0,0,5.689,0,3.445,3.445,0,0,1,3.45,0,5.841,5.841,0,0,0,5.689,0,3.445,3.445,0,0,1,3.45,0,7.481,7.481,0,0,0,.851.4q-1.123.582-2.447,1.114c-5.539,2.216-12.93,3.436-20.811,3.436s-15.272-1.221-20.811-3.436c-5.115-2.046-8.049-4.738-8.049-7.386s2.934-5.341,8.049-7.386c5.539-2.216,12.93-3.436,20.811-3.436s15.272,1.221,20.811,3.436c5.115,2.046,8.049,4.738,8.049,7.386,0,1.535-.986,3.083-2.811,4.512Z" transform="translate(-41.988 -103.165)"/>
        <path id="Trazado_125707" data-name="Trazado 125707" d="M81.2,198.4a3.1,3.1,0,0,1,1.725.463,5.84,5.84,0,0,0,5.69,0,3.445,3.445,0,0,1,3.449,0,5.84,5.84,0,0,0,5.69,0,3.446,3.446,0,0,1,3.45,0,5.429,5.429,0,0,0,2.845.74,1.2,1.2,0,1,0,0-2.4,3.1,3.1,0,0,1-1.725-.463,5.841,5.841,0,0,0-5.69,0,3.445,3.445,0,0,1-3.45,0,5.84,5.84,0,0,0-5.689,0,3.444,3.444,0,0,1-3.449,0,5.427,5.427,0,0,0-2.845-.74,1.2,1.2,0,0,0,0,2.4Z" transform="translate(-69.178 -167.735)"/>
        <path id="Trazado_125708" data-name="Trazado 125708" d="M145.2,166.4a3.1,3.1,0,0,1,1.725.463,5.84,5.84,0,0,0,5.689,0,3.445,3.445,0,0,1,3.449,0,5.84,5.84,0,0,0,5.69,0,3.446,3.446,0,0,1,3.45,0,5.429,5.429,0,0,0,2.845.74,1.2,1.2,0,0,0,0-2.4,3.1,3.1,0,0,1-1.725-.463,5.841,5.841,0,0,0-5.69,0,3.445,3.445,0,0,1-3.45,0,5.84,5.84,0,0,0-5.689,0,3.444,3.444,0,0,1-3.449,0,5.427,5.427,0,0,0-2.845-.74,1.2,1.2,0,0,0,0,2.405Z" transform="translate(-123.558 -140.545)"/>
        <path id="Trazado_125709" data-name="Trazado 125709" d="M249.2,352a1.2,1.2,0,0,0-1.2,1.2v14.43a1.2,1.2,0,1,0,2.4,0V353.2A1.2,1.2,0,0,0,249.2,352Z" transform="translate(-211.925 -300.293)"/>
        <path id="Trazado_125710" data-name="Trazado 125710" d="M153.2,336a1.2,1.2,0,0,0-1.2,1.2v14.43a1.2,1.2,0,1,0,2.4,0V337.2A1.2,1.2,0,0,0,153.2,336Z" transform="translate(-130.355 -286.698)"/>
        <path id="Trazado_125711" data-name="Trazado 125711" d="M345.2,336a1.2,1.2,0,0,0-1.2,1.2v14.43a1.2,1.2,0,1,0,2.4,0V337.2A1.2,1.2,0,0,0,345.2,336Z" transform="translate(-293.495 -286.698)"/>
        <path id="Trazado_125712" data-name="Trazado 125712" d="M441.2,304a1.2,1.2,0,0,0-1.2,1.2v9.62a1.2,1.2,0,1,0,2.4,0V305.2A1.2,1.2,0,0,0,441.2,304Z" transform="translate(-375.065 -259.508)"/>
        <path id="Trazado_125713" data-name="Trazado 125713" d="M57.2,304a1.2,1.2,0,0,0-1.2,1.2v14.43a1.2,1.2,0,0,0,2.4,0V305.2A1.2,1.2,0,0,0,57.2,304Z" transform="translate(-48.785 -259.508)"/>
        <path id="Trazado_125714" data-name="Trazado 125714" d="M441.2,400a1.2,1.2,0,0,0-1.2,1.2v1.2a1.2,1.2,0,1,0,2.4,0v-1.2A1.2,1.2,0,0,0,441.2,400Z" transform="translate(-375.065 -341.078)"/>
      </g>
    </g>
  </g>
</svg>
