<svg xmlns="http://www.w3.org/2000/svg" width="51" height="51" viewBox="0 0 51 51">
  <g id="Grupo_176639" data-name="Grupo 176639" transform="translate(-339 -3640)">
    <circle id="Elipse_4041" data-name="Elipse 4041" cx="25.5" cy="25.5" r="25.5" transform="translate(339 3640)" fill="#fee9b5"/>
    <g id="manguera-contra-incendios" transform="translate(342.469 3646.277)">
      <path id="Trazado_133297" data-name="Trazado 133297" d="M33.314,32a2.314,2.314,0,1,0,2.314,2.314A2.314,2.314,0,0,0,33.314,32Zm0,3.471a1.157,1.157,0,1,1,1.157-1.157A1.157,1.157,0,0,1,33.314,35.471Z" transform="translate(-10.958 -13.065)" fill="#7d5f54"/>
      <path id="Trazado_133298" data-name="Trazado 133298" d="M28.509,7.071l3.283-.253a1.154,1.154,0,0,0,.978.546h1.157a1.157,1.157,0,0,0,1.157-1.157V3.314a1.157,1.157,0,0,0-1.157-1.157H32.771a1.154,1.154,0,0,0-.978.546l-6.543-.5V2.157A1.157,1.157,0,0,0,24.092,1H22.935a1.157,1.157,0,0,0-1.157,1.157v.014A17.348,17.348,0,0,0,9.552,31.225l-.463.634a3.482,3.482,0,0,0-.618,2.035c0,1.67,1.019,2.977,2.321,2.977H33.921c1.3,0,2.321-1.308,2.321-2.977a3.478,3.478,0,0,0-.621-2.035L33.06,28.336A13.86,13.86,0,0,0,28.507,7.071Zm4.262-3.757h1.157V6.207H32.771Zm-1.157.536V5.671l-5.651.434q-.353-.095-.713-.174V3.361ZM24.092,2.157V5.741c-.381-.047-.767-.082-1.157-.1V2.157ZM6.157,19.514A16.217,16.217,0,0,1,21.778,3.329V5.643A13.868,13.868,0,0,0,11.653,28.336L10.248,30.27A16.109,16.109,0,0,1,6.157,19.514Zm28.928,14.38c0,.987-.533,1.82-1.164,1.82H10.792c-.631,0-1.164-.833-1.164-1.82a2.352,2.352,0,0,1,.4-1.355L20.3,18.4a2.587,2.587,0,0,1,2.056-1.2,2.59,2.59,0,0,1,2.056,1.2L34.685,32.539A2.348,2.348,0,0,1,35.085,33.894ZM28.694,22.322a6.87,6.87,0,0,0,.605-2.808,6.943,6.943,0,0,0-13.885,0,6.87,6.87,0,0,0,.605,2.811L14.5,24.413a9.257,9.257,0,1,1,15.71,0ZM16.834,21.2a5.786,5.786,0,1,1,11.051,0L25.348,17.72a3.761,3.761,0,0,0-2.992-1.678,3.756,3.756,0,0,0-2.992,1.678Zm14.1,4.2a10.414,10.414,0,1,0-17.157,0l-1.424,1.96a12.728,12.728,0,1,1,20,0Z" transform="translate(0)" fill="#7d5f54"/>
    </g>
  </g>
</svg>
