<svg xmlns="http://www.w3.org/2000/svg" width="128" height="128" viewBox="0 0 128 128">
  <g id="Grupo_176315" data-name="Grupo 176315" transform="translate(5833 10560)">
    <circle id="Elipse_4017" data-name="Elipse 4017" cx="64" cy="64" r="64" transform="translate(-5833 -10560)" fill="#7d5f54"/>
    <g id="manguera-de-agua" transform="translate(-5825.074 -10570.5)">
      <path id="Trazado_125715" data-name="Trazado 125715" d="M120,272h7.966v15.931H120Z" transform="translate(-86.741 -200.172)" fill="#6a9c72"/>
      <path id="Trazado_125716" data-name="Trazado 125716" d="M97.018,359.931H94.363a3.983,3.983,0,0,0,0-7.966h-5.31a3.983,3.983,0,1,0,0-7.966h-53.1a3.983,3.983,0,1,0,0,7.966h-5.31a3.983,3.983,0,0,0,0,7.966H27.983a3.983,3.983,0,1,0,0,7.966H97.018a3.983,3.983,0,1,0,0-7.966Z" transform="translate(-6.672 -260.224)" fill="#fd7f23"/>
      <path id="Trazado_125717" data-name="Trazado 125717" d="M112,136v21.242a2.655,2.655,0,0,0,2.655,2.655h5.31a2.655,2.655,0,0,0,2.655-2.655V146.621c0-6.638,6.638-7.966,6.638-7.966V136Z" transform="translate(-80.069 -86.742)" fill="#6a7073"/>
      <path id="Trazado_125718" data-name="Trazado 125718" d="M216,72h10.621V87.931H216Z" transform="translate(-166.81 -33.362)" fill="#6a7073"/>
      <path id="Trazado_125719" data-name="Trazado 125719" d="M93.31,88h15.931V98.621H93.31A5.31,5.31,0,1,1,93.31,88Z" transform="translate(-60.052 -46.707)" fill="#7e8589"/>
      <rect id="Rectángulo_35816" data-name="Rectángulo 35816" width="72" height="8" rx="4" transform="translate(20.148 92)" fill="#fcc02d"/>
      <path id="Trazado_125720" data-name="Trazado 125720" d="M274.621,71.9h-5.31L264,67.914V51.983L269.31,48h5.31Z" transform="translate(-206.844 -13.345)" fill="#7e8589"/>
      <path id="Trazado_125721" data-name="Trazado 125721" d="M296,48h5.31V71.9H296Z" transform="translate(-233.534 -13.345)" fill="#6a7073"/>
      <path id="Trazado_125722" data-name="Trazado 125722" d="M16,110.363a5.316,5.316,0,0,0,5.31,5.31H90.346A5.31,5.31,0,0,0,92.1,105.352a5.308,5.308,0,0,0-4.41-8.264h-.714a5.306,5.306,0,0,0-4.6-7.966H42.552V80.138a3.973,3.973,0,0,0,1.328-2.965V66.552a6.493,6.493,0,0,1,3.983-6.1v.792a1.328,1.328,0,0,0,1.328,1.328h7.523l4.956,3.717a1.328,1.328,0,0,0,.8.266h5.31A1.328,1.328,0,0,0,69.1,65.225v-23.9A1.328,1.328,0,0,0,67.777,40h-5.31a1.328,1.328,0,0,0-.8.266l-4.956,3.717H49.19a1.328,1.328,0,0,0-1.328,1.328v1.328h-14.6A6.637,6.637,0,0,0,30.6,59.358V77.173a3.973,3.973,0,0,0,1.328,2.965v8.983H29.276a5.306,5.306,0,0,0-4.6,7.966h-.714a5.308,5.308,0,0,0-4.41,8.264A5.319,5.319,0,0,0,16,110.363ZM63.794,42.655h2.655V63.9H63.794Zm-5.31,3.319,2.655-1.991V62.569l-2.655-1.991Zm-7.966.664h5.31V59.914h-5.31ZM42.06,62.569H39.9a1.328,1.328,0,0,0,0,2.655h1.411a10.546,10.546,0,0,0-.083,1.328V67.88H39.9a1.328,1.328,0,0,0,0,2.655h1.328V73.19H39.9a1.328,1.328,0,0,0,0,2.655h1.328v1.328A1.329,1.329,0,0,1,39.9,78.5h-5.31a1.329,1.329,0,0,1-1.328-1.328V59.914H43.981a8.7,8.7,0,0,0-1.92,2.655ZM39.9,81.156v7.966h-5.31V81.156ZM29.276,53.276a3.987,3.987,0,0,1,3.983-3.983h14.6v7.966h-14.6A3.987,3.987,0,0,1,29.276,53.276Zm0,38.5h53.1a2.655,2.655,0,0,1,0,5.31h-53.1a2.655,2.655,0,1,1,0-5.31Zm-5.31,7.966H87.691a2.655,2.655,0,0,1,0,5.31H23.966a2.655,2.655,0,1,1,0-5.31Zm-2.655,7.966H90.346a2.655,2.655,0,1,1,0,5.31H21.31a2.655,2.655,0,1,1,0-5.31Z" transform="translate(0 -6.673)"/>
      <path id="Trazado_125723" data-name="Trazado 125723" d="M442.612,33.163a1.326,1.326,0,0,0-1.482-1.153l-7.966,1a1.328,1.328,0,0,0,.163,2.645,1.345,1.345,0,0,0,.166-.01l7.966-1A1.328,1.328,0,0,0,442.612,33.163Z" transform="translate(-346.966)"/>
      <path id="Trazado_125724" data-name="Trazado 125724" d="M362.612,43.163a1.328,1.328,0,0,0-1.482-1.153l-7.966,1a1.328,1.328,0,0,0,.163,2.645,1.346,1.346,0,0,0,.166-.01l7.966-1A1.328,1.328,0,0,0,362.612,43.163Z" transform="translate(-280.242 -8.34)"/>
      <path id="Trazado_125725" data-name="Trazado 125725" d="M432.01,187.163a1.328,1.328,0,0,0,1.153,1.482l7.966,1a1.328,1.328,0,1,0,.329-2.635l-7.966-1A1.328,1.328,0,0,0,432.01,187.163Z" transform="translate(-346.964 -128.444)"/>
      <path id="Trazado_125726" data-name="Trazado 125726" d="M353.161,178.644l7.966,1a1.343,1.343,0,0,0,.166.01,1.328,1.328,0,0,0,.163-2.645l-7.966-1a1.328,1.328,0,1,0-.329,2.635Z" transform="translate(-280.238 -120.103)"/>
      <path id="Trazado_125727" data-name="Trazado 125727" d="M363.983,80h-2.655a1.328,1.328,0,0,0,0,2.655h2.655a1.328,1.328,0,0,0,0-2.655Z" transform="translate(-286.913 -40.035)"/>
      <path id="Trazado_125728" data-name="Trazado 125728" d="M410.655,80h-1.328a1.328,1.328,0,0,0,0,2.655h1.328a1.328,1.328,0,0,0,0-2.655Z" transform="translate(-326.947 -40.035)"/>
      <path id="Trazado_125729" data-name="Trazado 125729" d="M410.655,112h-1.328a1.328,1.328,0,0,0,0,2.655h1.328a1.328,1.328,0,0,0,0-2.655Z" transform="translate(-326.947 -66.724)"/>
      <path id="Trazado_125730" data-name="Trazado 125730" d="M410.655,146.655a1.328,1.328,0,0,0,0-2.655h-1.328a1.328,1.328,0,0,0,0,2.655Z" transform="translate(-326.947 -93.414)"/>
      <path id="Trazado_125731" data-name="Trazado 125731" d="M363.983,112h-2.655a1.328,1.328,0,0,0,0,2.655h2.655a1.328,1.328,0,0,0,0-2.655Z" transform="translate(-286.913 -66.724)"/>
      <path id="Trazado_125732" data-name="Trazado 125732" d="M363.983,144h-2.655a1.328,1.328,0,1,0,0,2.655h2.655a1.328,1.328,0,0,0,0-2.655Z" transform="translate(-286.913 -93.414)"/>
      <ellipse id="Elipse_4011" data-name="Elipse 4011" cx="1" cy="1.5" rx="1" ry="1.5" transform="translate(88.148 39.999)"/>
      <ellipse id="Elipse_4012" data-name="Elipse 4012" cx="1" cy="1.5" rx="1" ry="1.5" transform="translate(88.148 44.999)"/>
      <circle id="Elipse_4013" data-name="Elipse 4013" cx="1" cy="1" r="1" transform="translate(88.148 50.999)"/>
      <circle id="Elipse_4014" data-name="Elipse 4014" cx="1.5" cy="1.5" r="1.5" transform="translate(93.148 39.999)"/>
      <circle id="Elipse_4015" data-name="Elipse 4015" cx="1.5" cy="1.5" r="1.5" transform="translate(93.148 44.999)"/>
      <ellipse id="Elipse_4016" data-name="Elipse 4016" cx="1.5" cy="1" rx="1.5" ry="1" transform="translate(93.148 50.999)"/>
    </g>
  </g>
</svg>
