<svg xmlns="http://www.w3.org/2000/svg" width="51" height="51" viewBox="0 0 51 51">
  <g id="Grupo_176640" data-name="Grupo 176640" transform="translate(-339 -3715)">
    <circle id="Elipse_4042" data-name="Elipse 4042" cx="25.5" cy="25.5" r="25.5" transform="translate(339 3715)" fill="#fee9b5"/>
    <g id="Outline" transform="translate(332.387 3723.418)">
      <path id="Trazado_133299" data-name="Trazado 133299" d="M145.663,38.695h-1.674v-.558a.558.558,0,0,0-.558-.558h-5.393l-2.083-1.562a.558.558,0,0,0-.335-.112h-1.008l.1-.04a.558.558,0,0,0,.351-.518A3.348,3.348,0,0,0,131.716,32H127.81v1.116h3.905a2.234,2.234,0,0,1,2.2,1.866l-2.309.924H127.88a1.744,1.744,0,0,0-1.527.9l-2.448-1.748V33.116h2.789V32h-5.579a.558.558,0,0,0-.558.558v2.789a.558.558,0,0,0,.558.558h.558a1.674,1.674,0,0,0,0,3.347h1.116v2.232a.558.558,0,0,0,.558.558h.1a1.67,1.67,0,0,0,.332,1.674,1.67,1.67,0,0,0,0,2.232,1.671,1.671,0,0,0,.265,2.471,22.274,22.274,0,0,0-.871,2.39l1.069.321a21.155,21.155,0,0,1,.88-2.392h2.693a1.673,1.673,0,0,0,1.246-2.789,1.67,1.67,0,0,0,0-2.232,1.67,1.67,0,0,0,0-2.232h2.224l.434,1.736a22.2,22.2,0,0,0,1.681,4.544,21.084,21.084,0,0,1,2.226,9.429v4.933a1.117,1.117,0,0,1-1.116,1.116H124.463a1.117,1.117,0,0,1-1.116-1.116V57.193a21.111,21.111,0,0,1,.471-4.43l-1.09-.238a22.243,22.243,0,0,0-.5,4.668v4.933a2.234,2.234,0,0,0,2.232,2.232h10.042a2.234,2.234,0,0,0,2.232-2.232V57.193a22.2,22.2,0,0,0-2.343-9.928,21.086,21.086,0,0,1-1.6-4.315l-.274-1.094a4.671,4.671,0,0,0,2.54.745V41.484a3.545,3.545,0,0,1-3.307-2.239l-.08-.2a.558.558,0,0,0-.449-.346l-3.425-.428a.628.628,0,0,1,.078-1.25h7.555l2.083,1.562a.558.558,0,0,0,.335.112h5.021v7.81h-1.116V40.368h-1.116v6.137h-5.021v1.116h7.81a.558.558,0,0,0,.558-.558v-.558h1.674a.558.558,0,0,0,.558-.558V39.253A.558.558,0,0,0,145.663,38.695Zm-19.737-.3a1.66,1.66,0,0,0,.16-.4l.1.073a1.747,1.747,0,0,0,.506.862v1.933l-.017.069h-1.033Zm-4.252-5.275h1.116v1.674h-1.116Zm-.558,4.463a.559.559,0,0,1,.558-.558h2.789a.558.558,0,0,1,0,1.116h-2.789A.559.559,0,0,1,121.116,37.579Zm3.594,1.655-.188,1.692h-.616V39.253S124.629,39.246,124.71,39.234Zm3.1,2.808a.558.558,0,0,1,0,1.116h-2.789a.558.558,0,0,1,0-1.116Zm.558,2.789a.558.558,0,0,1-.558.558h-2.789a.558.558,0,0,1,0-1.116h2.789A.558.558,0,0,1,128.368,44.831Zm-.558,2.789h-2.789a.558.558,0,0,1,0-1.116h2.789a.558.558,0,1,1,0,1.116Zm3.264-7.253H127.81V39.4l2.953.369A4.73,4.73,0,0,0,131.075,40.368Zm14.03,5.021h-1.116V39.81H145.1Z" transform="translate(-96.747 -28.991)" fill="#7d5f54"/>
      <path id="Trazado_133300" data-name="Trazado 133300" d="M72,72h2.232v1.116H72Z" transform="translate(-52.095 -66.201)" fill="#7d5f54"/>
      <path id="Trazado_133301" data-name="Trazado 133301" d="M16,72h2.232v1.116H16Z" transform="translate(0 -66.201)" fill="#7d5f54"/>
      <path id="Trazado_133302" data-name="Trazado 133302" d="M0,0H1.116V2.232H0Z" transform="translate(19.983 3.577) rotate(-63.512)" fill="#7d5f54"/>
      <path id="Trazado_133303" data-name="Trazado 133303" d="M0,0H1.116V2.232H0Z" transform="translate(16.489 1.835) rotate(-63.512)" fill="#7d5f54"/>
      <path id="Trazado_133304" data-name="Trazado 133304" d="M0,0H2.232V1.116H0Z" transform="translate(19.983 9.087) rotate(-26.488)" fill="#7d5f54"/>
      <path id="Trazado_133305" data-name="Trazado 133305" d="M0,0H2.232V1.116H0Z" transform="translate(16.487 10.829) rotate(-26.488)" fill="#7d5f54"/>
      <path id="Trazado_133306" data-name="Trazado 133306" d="M197.021,326.695a3.91,3.91,0,0,0,3.905-3.905v-2.232a.558.558,0,0,0-.558-.558h-4.463A3.91,3.91,0,0,0,192,323.905v2.232a.558.558,0,0,0,.558.558Zm-3.905-2.789a2.793,2.793,0,0,1,2.789-2.789h3.905v1.674a2.793,2.793,0,0,1-2.789,2.789h-3.905Z" transform="translate(-163.727 -296.907)" fill="#7d5f54"/>
    </g>
  </g>
</svg>
