<svg xmlns="http://www.w3.org/2000/svg" width="128" height="128" viewBox="0 0 128 128">
  <g id="Grupo_176313" data-name="Grupo 176313" transform="translate(-736 -1140)">
    <circle id="Elipse_4007" data-name="Elipse 4007" cx="64" cy="64" r="64" transform="translate(736 1140)" fill="#7d5f54"/>
    <g id="manometro" transform="translate(769 1167)">
      <path id="Trazado_125688" data-name="Trazado 125688" d="M172.113,378.8H184.56v13.807H172.113Zm0,0" transform="translate(-147.29 -324.168)" fill="#a8d3d8"/>
      <path id="Trazado_125689" data-name="Trazado 125689" d="M67.433,37.465A29.964,29.964,0,1,1,37.468,7.5,29.964,29.964,0,0,1,67.433,37.465Zm0,0" transform="translate(-6.422 -6.418)" fill="#537983"/>
      <path id="Trazado_125690" data-name="Trazado 125690" d="M92.172,67.22A24.949,24.949,0,1,1,67.223,42.27,24.949,24.949,0,0,1,92.172,67.22Zm0,0" transform="translate(-36.177 -36.173)" fill="#deecf1"/>
      <path id="Trazado_125691" data-name="Trazado 125691" d="M201.934,42.27q-1.136,0-2.246.1a24.949,24.949,0,0,1,0,49.7q1.11.1,2.246.1a24.95,24.95,0,0,0,0-49.9Zm0,0" transform="translate(-170.887 -36.173)" fill="#a8d3d8"/>
      <path id="Trazado_125692" data-name="Trazado 125692" d="M111.491,463.386H73.853a1.842,1.842,0,0,1-1.842-1.841,5.088,5.088,0,0,1,5.088-5.088h31.145a5.088,5.088,0,0,1,5.088,5.088A1.841,1.841,0,0,1,111.491,463.386Zm0,0" transform="translate(-61.626 -390.624)" fill="#537983"/>
      <path id="Trazado_125693" data-name="Trazado 125693" d="M308.917,456.457H306.5v.008a3.4,3.4,0,0,1,3.172,3.4v3.524h2.487A1.841,1.841,0,0,0,314,461.545,5.088,5.088,0,0,0,308.917,456.457Zm0,0" transform="translate(-262.298 -390.624)" fill="#3e5959"/>
      <path id="Trazado_125694" data-name="Trazado 125694" d="M197.255,75.353a1.942,1.942,0,0,0-2.5,1.125l-9.379,24.712A1.941,1.941,0,0,0,189,102.567l9.379-24.711A1.941,1.941,0,0,0,197.255,75.353Zm0,0" transform="translate(-158.528 -64.376)" fill="#ff4755"/>
      <path id="Trazado_125695" data-name="Trazado 125695" d="M195.408,191.384a4.024,4.024,0,1,1-4.024-4.024A4.024,4.024,0,0,1,195.408,191.384Zm0,0" transform="translate(-160.337 -160.337)" fill="#3e5959"/>
      <path id="Trazado_125696" data-name="Trazado 125696" d="M62.916,85.046h1.73A19.189,19.189,0,0,0,69.54,96.863l-1.223,1.223a1.082,1.082,0,0,0,1.53,1.53l1.962-1.962.005-.005a1.083,1.083,0,0,0,0-1.531,17.19,17.19,0,0,1,0-24.309,17.268,17.268,0,0,1,15.392-4.729L82.674,79.025a5.1,5.1,0,0,0-2.95,7.772l-.968,2.55a3.027,3.027,0,0,0,4.063,3.831c1.73-.775,1.7-2.4,2.587-4.314a5.1,5.1,0,0,0,2.889-7.612l4.558-12.01a17.194,17.194,0,0,1,3.272,26.876,1.083,1.083,0,0,0,0,1.531l.017.016,1.95,1.951a1.082,1.082,0,0,0,1.53-1.53L98.4,96.863a19.189,19.189,0,0,0,4.895-11.817h1.73a1.082,1.082,0,0,0,0-2.164h-1.73A19.194,19.194,0,0,0,98.4,71.066l1.223-1.223a1.082,1.082,0,0,0-1.53-1.53l-1.223,1.223a19.29,19.29,0,0,0-3.237-2.345l.155-.407a3.023,3.023,0,1,0-5.652-2.147l-.15.394a19.257,19.257,0,0,0-2.933-.386V62.911a1.082,1.082,0,0,0-2.165,0v1.737a19.436,19.436,0,0,0-11.816,4.888l-1.224-1.224a1.082,1.082,0,0,0-1.531,1.53l1.223,1.223a19.193,19.193,0,0,0-4.9,11.818H62.917A1.082,1.082,0,0,0,62.916,85.046ZM81.933,91.2a.86.86,0,0,1-1.154-1.088l.653-1.721a5.075,5.075,0,0,0,1.612.592C82.416,90.467,82.469,90.964,81.933,91.2Zm2.037-4.3a2.942,2.942,0,1,1,2.942-2.942A2.946,2.946,0,0,1,83.97,86.907Zm7.794-20.892L86.609,79.6a5.07,5.07,0,0,0-1.6-.63L90.158,65.4A.859.859,0,0,1,91.764,66.015Zm0,0" transform="translate(-52.923 -52.918)"/>
      <path id="Trazado_125697" data-name="Trazado 125697" d="M189.667,314.355h-7.793a1.082,1.082,0,0,0,0,2.164h7.793A1.082,1.082,0,0,0,189.667,314.355Zm0,0" transform="translate(-154.724 -269.017)"/>
      <path id="Trazado_125698" data-name="Trazado 125698" d="M112.924,9.093A31.048,31.048,0,0,0,70.4,7.79a1.082,1.082,0,0,0,1.434,1.621,28.882,28.882,0,0,1,40.769,40.769,1.082,1.082,0,0,0,1.621,1.434,31.047,31.047,0,0,0-1.3-42.521Zm0,0" transform="translate(-59.924)"/>
      <path id="Trazado_125699" data-name="Trazado 125699" d="M60.8,86.832A26.031,26.031,0,1,0,34.773,60.8,26.061,26.061,0,0,0,60.8,86.832Zm0-49.9A23.867,23.867,0,1,1,36.937,60.8,23.894,23.894,0,0,1,60.8,36.934Zm0,0" transform="translate(-29.758 -29.755)"/>
      <path id="Trazado_125700" data-name="Trazado 125700" d="M46.619,127.64H38.352v-3.53A31.035,31.035,0,0,0,51.1,117.64a1.082,1.082,0,0,0-1.4-1.651,28.883,28.883,0,0,1-40.7-40.7,1.082,1.082,0,0,0-1.652-1.4,31.066,31.066,0,0,0,16.4,50.237v3.517H15.474a6.177,6.177,0,0,0-6.17,6.17,2.927,2.927,0,0,0,2.923,2.923H49.865a2.927,2.927,0,0,0,2.923-2.923A6.177,6.177,0,0,0,46.619,127.64Zm-20.713-3.079a31.436,31.436,0,0,0,5.141.421,31.019,31.019,0,0,0,5.141-.429v3.087H25.9v-3.079Zm23.96,10.008H12.228a.761.761,0,0,1-.759-.759,4.01,4.01,0,0,1,4.006-4.006H46.619a4.01,4.01,0,0,1,4.006,4.006A.761.761,0,0,1,49.865,134.57Zm0,0" transform="translate(0 -62.89)"/>
    </g>
  </g>
</svg>
